<?xml version="1.0" encoding="UTF-8" standalone="no"?>
<!-- Created with Inkscape (http://www.inkscape.org/) -->

<svg
   xmlns:dc="http://purl.org/dc/elements/1.1/"
   xmlns:cc="http://creativecommons.org/ns#"
   xmlns:rdf="http://www.w3.org/1999/02/22-rdf-syntax-ns#"
   xmlns:svg="http://www.w3.org/2000/svg"
   xmlns="http://www.w3.org/2000/svg"
   xmlns:sodipodi="http://sodipodi.sourceforge.net/DTD/sodipodi-0.dtd"
   xmlns:inkscape="http://www.inkscape.org/namespaces/inkscape"
   width="35mm"
   height="35mm"
   viewBox="0 0 35 35"
   version="1.1"
   id="svg101"
   inkscape:version="0.92.3 (2405546, 2018-03-11)"
   sodipodi:docname="drawing.svg">
  <defs
     id="defs95" />
  <sodipodi:namedview
     id="base"
     pagecolor="#ffffff"
     bordercolor="#666666"
     borderopacity="1.0"
     inkscape:pageopacity="0.0"
     inkscape:pageshadow="2"
     inkscape:zoom="5.6568542"
     inkscape:cx="65.0276"
     inkscape:cy="62.035228"
     inkscape:document-units="mm"
     inkscape:current-layer="layer1"
     showgrid="false"
     inkscape:window-width="1920"
     inkscape:window-height="1029"
     inkscape:window-x="0"
     inkscape:window-y="0"
     inkscape:window-maximized="1" />
  <metadata
     id="metadata98">
    <rdf:RDF>
      <cc:Work
         rdf:about="">
        <dc:format>image/svg+xml</dc:format>
        <dc:type
           rdf:resource="http://purl.org/dc/dcmitype/StillImage" />
        <dc:title></dc:title>
      </cc:Work>
    </rdf:RDF>
  </metadata>
  <g
     inkscape:label="Layer 1"
     inkscape:groupmode="layer"
     id="layer1"
     transform="translate(0,-262)">
    <g
       transform="matrix(0.26458333,0,0,0.26458333,-9.2096538,252.70566)"
       id="g8">
      <path
         style="fill:#064cfa"
         inkscape:connector-curvature="0"
         d="m 103.477,60.661 c 0,0 3,-7.25 12.25,-5 l 37.25,64.25 c 0,0 2.75,13.25 -1.75,22 0,0 -13,22 -50.25,23.75 0,0 -37,-0.5 -52.25,-28.75 0,0 6.25,4.25 19.5,3 0,0 10.25,12 32.5,12.75 0,0 28,0.5 39.25,-19.5 0,0 2.75,-5.75 -1.75,-12.5 z"
         id="path2" />
      <path
         style="fill:#064cfa"
         inkscape:connector-curvature="0"
         d="m 134.488,123.561 c 0,0 4.77,6.229 -1.814,13.105 l -74.267,0.027 c 0,0 -12.844,-4.262 -18.159,-12.542 0,0 -12.521,-22.276 4.637,-55.386 0,0 18.979,-31.766 51.068,-30.802 0,0 -6.81,3.278 -12.37,15.37 0,0 -15.521,2.854 -27.323,21.731 0,0 -14.468,23.978 -2.801,43.737 0,0 3.597,5.262 11.693,4.752 z"
         id="path4" />
      <path
         style="fill:#064cfa"
         inkscape:connector-curvature="0"
         d="m 65.855,118.786 c 0,0 -7.776,1.047 -10.475,-8.083 L 92.234,46.226 c 0,0 10.076,-9.032 19.903,-9.536 0,0 25.553,0.193 45.773,31.527 0,0 18.148,32.247 1.377,59.622 0,0 0.537,-7.539 -7.198,-18.369 0,0 5.229,-14.892 -5.297,-34.508 0,0 -13.627,-24.464 -36.573,-24.149 0,0 -6.353,0.51 -9.93,7.791 z"
         id="path6" />
    </g>
  </g>
</svg>
